<svg width="17" height="17" viewBox="0 0 17 17" fill="none" xmlns="http://www.w3.org/2000/svg">
<path d="M15.7597 2.46607C14.9212 1.51467 13.758 0.990723 12.4844 0.990723C10.6931 0.990723 9.55908 2.06053 8.92317 2.95801C8.75819 3.19089 8.61784 3.42441 8.5 3.64415C8.38216 3.42441 8.24185 3.19089 8.07683 2.95801C7.44092 2.06053 6.30687 0.990723 4.51562 0.990723C3.24202 0.990723 2.07881 1.5147 1.2403 2.4661C0.440506 3.37368 0 4.58918 0 5.88868C0 7.30323 0.552268 8.61891 1.73802 10.0291C2.79776 11.2895 4.32235 12.5887 6.08779 14.0931C6.74565 14.6537 7.42595 15.2334 8.1502 15.8671L8.17195 15.8861C8.26585 15.9684 8.38293 16.0094 8.5 16.0094C8.61707 16.0094 8.73415 15.9683 8.82805 15.8861L8.8498 15.8671C9.57405 15.2334 10.2544 14.6537 10.9123 14.093C12.6777 12.5887 14.2022 11.2895 15.262 10.0291C16.4477 8.61888 17 7.30323 17 5.88868C17 4.58918 16.5595 3.37368 15.7597 2.46607ZM10.2662 13.3349C9.69906 13.8182 9.11542 14.3155 8.5 14.8505C7.88461 14.3156 7.30094 13.8182 6.73373 13.3348C3.27864 10.3906 0.996094 8.44555 0.996094 5.88868C0.996094 4.83183 1.34821 3.85021 1.98761 3.12469C2.63434 2.39093 3.53212 1.98682 4.51562 1.98682C5.88124 1.98682 6.76401 2.82812 7.26405 3.53388C7.71259 4.16687 7.94664 4.80497 8.02646 5.0499C8.09323 5.25493 8.28438 5.39369 8.5 5.39369C8.71562 5.39369 8.90677 5.25493 8.97354 5.0499C9.05336 4.80497 9.28741 4.16687 9.73595 3.53385C10.236 2.82812 11.1188 1.98682 12.4844 1.98682C13.4679 1.98682 14.3657 2.39093 15.0124 3.12469C15.6518 3.85021 16.0039 4.83183 16.0039 5.88868C16.0039 8.44555 13.7214 10.3906 10.2662 13.3349Z" fill="#2B83EB"/>
</svg>
